Coordinates
version=1
nRows=24
nColumns=19
inDegrees=yes

Units are S.I. units (second, meters, Newtons, ...)
If the header above contains a line with 'inDegrees', this indicates whether rotational values are in degrees (yes) or radians (no).

endheader
time	pelvis_obliquity	pelvis_rotation	pelvis_tilt	pelvis_to_ground_tx	pelvis_to_ground_ty	pelvis_to_ground_tz	left_hip_abduction	left_hip_rotation	left_hip_flexion	left_knee_flexion	left_ankle_flexion	left_subtalar_angle	right_hip_abduction	right_hip_rotation	right_hip_flexion	right_knee_flexion	right_ankle_flexion	right_subtalar_angle
      1.53000000	     97.43618553	     15.59245296	    -13.09160794	     -1.28996357	     -0.69085444	      0.59261051	     -5.51816669	    -25.39413827	     20.59633793	     -5.30656922	    -14.56080666	    -10.03701616	     -3.57289525	     -2.21398509	     23.26640176	    -45.28537912	    -15.86517257	    -11.71559312
      1.54000000	     97.18464998	     16.83245346	    -13.12666421	     -1.28090816	     -0.69032683	      0.59505394	     -5.32078458	    -25.74239020	     19.06322676	     -3.93157263	    -14.89250927	    -10.08747691	     -3.51655937	     -3.12523385	     25.63969904	    -47.12817135	    -14.87890948	    -12.21165718
      1.55000000	     96.89198508	     18.03089078	    -13.05553664	     -1.27201085	     -0.68985026	      0.59715824	     -5.14969280	    -25.78143317	     17.62806399	     -2.86714722	    -15.51499038	    -10.33397476	     -3.48009729	     -4.02345585	     27.97661920	    -48.85851888	    -13.43942927	    -12.81544272
      1.56000000	     96.59234282	     19.23534447	    -12.99955799	     -1.26324191	     -0.68945489	      0.59897119	     -4.86492024	    -26.04634563	     16.28764762	     -1.85505398	    -15.70765329	    -10.29269380	     -3.46466153	     -4.90462822	     30.35010632	    -50.41694040	    -12.67656018	    -13.21603424
      1.57000000	     96.30344220	     20.46990040	    -12.82112117	     -1.25456700	     -0.68913999	      0.60035691	     -4.61326629	    -26.15032501	     15.01005030	     -1.14236339	    -16.19209614	    -10.35877277	     -3.49868905	     -5.89229994	     32.61840597	    -51.86091239	    -11.36516056	    -13.74707065
      1.58000000	     96.11061077	     21.65749331	    -12.69376922	     -1.24598280	     -0.68887624	      0.60136902	     -4.35934270	    -26.43061082	     13.80165879	     -0.43336954	    -16.30476682	    -10.22469274	     -3.66878312	     -6.85056131	     34.92392207	    -53.16859319	    -10.73272218	    -14.05677413
      1.59000000	     95.98798207	     22.84742999	    -12.50412906	     -1.23743675	     -0.68868394	      0.60196035	     -4.15402738	    -26.72114442	     12.60631244	      0.13091416	    -16.45612531	    -10.02982612	     -3.94504861	     -7.85856798	     37.12762642	    -54.32705409	     -9.97013447	    -14.40825606
      1.60000000	     95.95421140	     23.99728387	    -12.29020899	     -1.22889930	     -0.68855192	      0.60215113	     -4.00921883	    -27.02593979	     11.41524632	      0.61331900	    -16.55130554	     -9.78749103	     -4.35389421	     -8.84196830	     39.24063134	    -55.30380232	     -9.30921840	    -14.68044408
      1.61000000	     96.01207495	     25.09520944	    -12.04526917	     -1.22033486	     -0.68846491	      0.60196304	     -3.94251019	    -27.39467410	     10.18229932	      1.04617558	    -16.60658751	     -9.48175733	     -4.90480871	     -9.77186076	     41.21968021	    -56.05771112	     -8.67479370	    -14.89017935
      1.62000000	     96.16903332	     26.10601816	    -11.79793689	     -1.21170686	     -0.68842742	      0.60142214	     -3.96829436	    -27.77442327	      8.91448963	      1.44552190	    -16.60224258	     -9.14459088	     -5.61056227	    -10.58067607	     43.05850117	    -56.54157496	     -8.15097333	    -15.01143413
      1.63000000	     96.41531461	     27.01290235	    -11.55015814	     -1.20296029	     -0.68842906	      0.60056616	     -4.09166482	    -28.16179713	      7.59064246	      1.82768318	    -16.54424474	     -8.80035616	     -6.46707683	    -11.21596748	     44.71336399	    -56.69717790	     -7.75248441	    -15.05479958
      1.64000000	     96.73846580	     27.80992929	    -11.29256736	     -1.19404901	     -0.68845046	      0.59942347	     -4.32104350	    -28.53635132	      6.20565326	      2.16273765	    -16.46106085	     -8.45189692	     -7.46519590	    -11.65150543	     46.13015688	    -56.47945762	     -7.42181791	    -15.01708335
      1.65000000	     97.12213362	     28.47464611	    -11.03987291	     -1.18493133	     -0.68850390	      0.59802651	     -4.64147454	    -28.88729777	      4.77193549	      2.45680382	    -16.35317475	     -8.13258131	     -8.58627086	    -11.82658898	     47.29088005	    -55.85873637	     -7.19399123	    -14.90942454
      1.66000000	     97.53418258	     28.98247059	    -10.76791068	     -1.17554009	     -0.68855399	      0.59641847	     -5.04616260	    -29.13393770	      3.28635834	      2.68177675	    -16.27672639	     -7.78526430	     -9.80546144	    -11.67040067	     48.13273114	    -54.80189398	     -6.87295598	    -14.61123061
      1.67000000	     97.98335078	     29.38246592	    -10.55430866	     -1.16584319	     -0.68861604	      0.59463064	     -5.50302219	    -29.43181187	      1.83872654	      2.80751855	    -16.12982242	     -7.58637745	    -11.09079001	    -11.24004135	     48.69210495	    -53.33218004	     -6.87860690	    -14.48196122
      1.68000000	     98.40687896	     29.64864511	    -10.30762474	     -1.15577491	     -0.68866696	      0.59268210	     -5.99805201	    -29.62841932	      0.38962555	      2.78348910	    -16.02793290	     -7.42048244	    -12.38344063	    -10.47949523	     48.89249880	    -51.50021799	     -6.88269191	    -14.32798812
      1.69000000	     98.80526118	     29.80403724	    -10.06904344	     -1.14531824	     -0.68869420	      0.59059032	     -6.51212577	    -29.76280571	     -0.97796668	      2.54530242	    -15.95159110	     -7.29501553	    -13.64275394	     -9.44281529	     48.78263131	    -49.40498249	     -6.88875771	    -14.20996483
      1.70000000	     99.14491311	     29.86170939	     -9.83562487	     -1.13445359	     -0.68869390	      0.58838263	     -7.00863498	    -29.84379452	     -2.22392303	      2.05575293	    -15.90232435	     -7.20369113	    -14.79801281	     -8.17330909	     48.40215336	    -47.16904012	     -6.87742904	    -14.16640656
      1.71000000	     99.40567354	     29.83185887	     -9.60276041	     -1.12319222	     -0.68865708	      0.58607967	     -7.47248528	    -29.88184942	     -3.31274072	      1.26791991	    -15.88594737	     -7.13589152	    -15.78555367	     -6.74715568	     47.80929501	    -44.94753447	     -6.82499300	    -14.22880890
      1.72000000	     99.55224512	     29.72052490	     -9.37912212	     -1.11156664	     -0.68859027	      0.58372028	     -7.85769364	    -29.87348335	     -4.18276093	      0.14726767	    -15.91104334	     -7.08125924	    -16.52675870	     -5.24726008	     47.08982926	    -42.88764576	     -6.70030922	    -14.41485454
      1.73000000	     99.54745132	     29.52913989	     -9.16980333	     -1.09963415	     -0.68850343	      0.58135277	     -8.11782727	    -29.80832517	     -4.77626307	     -1.33485216	    -15.99061582	     -7.03403097	    -16.94886329	     -3.76638685	     46.32908665	    -41.11655014	     -6.47524507	    -14.70674407
      1.74000000	     99.35433326	     29.26391593	     -8.99030460	     -1.08746692	     -0.68843357	      0.57904153	     -8.19525119	    -29.69183583	     -5.03379796	     -3.17926408	    -16.13610143	     -6.97751916	    -16.99273037	     -2.39006441	     45.60278963	    -39.70952318	     -6.12038465	    -15.08507581
      1.75000000	     98.94874862	     28.92207673	     -8.85750625	     -1.07514273	     -0.68840182	      0.57685410	     -8.05466033	    -29.53128059	     -4.91948435	     -5.36469787	    -16.35713544	     -6.90395342	    -16.63417169	     -1.17708595	     44.96897395	    -38.69292653	     -5.63156585	    -15.48984781
      1.76000000	     98.30779819	     28.50738825	     -8.76646321	     -1.06273591	     -0.68844697	      0.57487353	     -7.66518772	    -29.32477047	     -4.43673443	     -7.83527096	    -16.66117525	     -6.81074388	    -15.87059785	     -0.14615112	     44.43181435	    -38.01677140	     -5.02128341	    -15.86216501
